<svg width="321" height="374" viewBox="0 0 321 374" fill="none" xmlns="http://www.w3.org/2000/svg">
<path d="M321 47.9155V82.6437H320.979C320.994 84.28 320.944 119.262 286.579 139.866C260.094 155.744 214.955 180.478 198.894 189.229V256.072C205.123 253.433 211.035 250.227 216.685 246.501C225.346 240.794 227.765 235.978 238.066 238.213C252.075 241.25 266.127 253.177 272.123 266.192C275.715 273.986 275.956 284.769 270.48 290.623C264.629 296.876 241.207 312.35 232.773 314.961C227.455 318.94 206.987 325.305 198.685 327.261C195.851 327.929 192.346 328.618 188.507 329.241C184.318 336.547 178.513 343.488 170.509 347.93C148.764 360.002 134.489 368.323 134.448 368.347L126.02 373.287V326.231C120.64 325.19 113.013 323.011 112.318 320.488C111.527 317.61 113.431 316.08 114.893 314.803C117.387 314.828 122.384 316.48 126.02 317.575V279.547C117.807 276.329 109.889 272.428 105.43 269.642C105.153 266.077 106.156 264.771 108.226 262.946C109.997 262.229 117.803 267.224 126.02 270.761V263.321C125.919 263.238 125.819 263.15 125.72 263.057C125 261.3 125.322 260.059 126.02 258.833V248.081L126.173 247.393C126.183 247.349 129.497 232.379 136.024 222.091C138.794 217.726 142.284 213.716 145.718 210.365C150.45 205.749 155.22 202.307 157.856 200.913C158.749 200.441 161.047 199.081 164.032 197.281H141.555C140.122 197.281 138.726 197.115 137.387 196.799V196.896L137.061 196.718C134.113 195.966 131.447 194.494 129.264 192.499L129.134 192.43C129.008 192.361 97.5939 175.349 67.8302 158.53C67.5096 162.565 67.4877 166.647 67.769 171.101C68.0027 174.809 69.5372 181.764 69.1416 184.65C67.5706 185.981 64.4446 187.457 62.2102 186.228C59.5538 184.769 58.7838 168.833 60.1244 154.159C58.0289 152.965 55.9582 151.779 53.9217 150.609C53.6628 152.043 53.4408 153.341 53.3293 154.332C52.7208 159.727 53.3119 166.46 52.5968 171.098C50.3826 172.785 46.4104 173.285 44.682 171.329C44.2119 166.268 44.6653 154.515 45.994 146.023C44.0314 144.88 42.1198 143.759 40.2778 142.671C39.5044 146.81 38.6918 150.935 38.2894 155.682C37.6248 163.525 38.0876 170.194 38.439 178.023C39.1132 182.243 39.6058 186.236 40.5226 190.574C41.2282 193.914 43.5298 200.195 43.1729 203.289C43.0338 203.544 37.2077 208.179 35.1247 202.966C34.7011 201.907 34.5049 200.668 34.2454 199.703C33.6867 197.629 33.0601 195.267 32.5435 192.899C31.6457 188.787 29.9688 182.783 30.7394 178.735C27.9025 173.948 30.5101 147.49 32.5086 137.938C30.499 136.605 28.6183 135.221 26.8579 133.798C25.5639 139.211 24.5318 144.47 23.9287 149.705C21.7564 168.57 27.0412 179.958 15.5414 175.622C14.2721 171.827 14.6611 163.95 14.8353 159.354C14.9496 156.346 15.6428 146.326 16.4011 144.442L16.9368 143.563C16.3955 140.678 17.9171 134.077 19.9053 127.369C1.18295 107.548 1.14876 83.9799 1.16166 82.6437H1.14036V38.7059L9.3275 42.9717C9.40877 43.0136 22.8101 49.9809 40.2935 59.2949L61.192 38.7232C62.6132 37.6938 63.9105 36.5559 65.2237 35.5138C69.7126 31.9519 97.9542 12.5289 102.949 14.0108C105.585 15.7138 106.048 16.5467 105.774 20.1448C104.019 22.2209 94.9538 26.1937 91.542 28.1169C86.4871 30.9663 82.4094 33.6605 77.8727 36.505C75.9057 38.0641 77.0087 37.536 74.803 38.2046C74.1411 39.5364 73.2902 39.785 71.8226 40.9046C71.5641 41.1017 70.2915 42.0924 70.0925 42.2206C69.0075 42.9241 69.5456 42.6221 68.6371 42.8546C67.2131 44.8668 59.5667 51.3055 57.9981 52.0346L47.904 63.3607C49.8228 64.3888 51.7703 65.4339 53.739 66.4935C55.6601 64.3362 57.2327 62.6472 58.0441 61.8357L60.7593 59.6308C62.5286 59.086 65.9953 60.9862 65.9779 64.1956C65.965 66.695 63.6538 68.2043 61.7586 69.708C61.568 69.9365 61.3545 70.2109 61.1315 70.4859C63.1171 71.5617 65.1081 72.6443 67.0971 73.7284C68.3519 72.3547 69.4553 71.2224 70.2001 70.5986C71.3758 69.6139 70.8054 70.1202 71.5536 69.8323C72.5529 67.949 72.3595 68.1987 74.3596 67.2741C75.8738 64.5031 78.2612 63.546 80.4075 61.5451C85.0747 57.1941 94.923 50.7381 100.694 47.4805C105.553 44.7379 128.253 33.2305 134.29 34.7342C136.262 36.9076 136.384 38.0003 135.876 41.198C133.577 43.1093 127.144 44.4792 123.713 45.7634C112.03 50.1344 101.017 56.3917 91.324 63.4179C84.265 68.5348 80.4138 72.3833 74.799 77.9477C81.5907 81.6871 88.1845 85.3694 94.1597 88.7861C99.8827 83.482 106.767 77.9948 110.179 76.8446L113.703 74.2174C115.937 72.8834 128.328 65.8377 132.482 65.9318C134.591 67.6678 135.301 68.9855 135.029 72.6241C134.668 73.4496 123.822 78.0928 120.137 80.1846C117.2 81.8512 116.151 82.4549 113.452 84.2414C111.548 85.5015 108.785 87.9959 106.665 88.6757C105.342 90.7097 106.563 89.5919 104.191 90.7299L101.674 93.1515C118.08 103.14 126.972 117.274 131.778 129.12C134.608 127.316 137.965 126.267 141.555 126.267H176.111C181.133 126.267 185.698 128.317 189.005 131.623L189.287 131.911C193.891 119.296 203.131 103.272 221.604 92.4711L223.084 91.6085C221.808 90.5973 220.495 89.5729 219.055 88.5133C217.109 87.0818 215.891 86.2273 213.751 84.7639C211.96 83.5385 209.813 82.6515 208.412 81.01C204.003 79.8598 195.021 72.096 175.982 68.9156C172.543 68.3416 165.737 68.752 163.134 67.203C162.929 66.9892 159.868 59.8986 165.592 59.5923C169.799 59.3671 180.565 61.3523 184.454 62.1213L185.694 60.2715L185.859 55.9622C182.497 54.5861 175.402 55.4464 180.07 46.753C183.04 46.3721 185.645 47.1456 188.275 47.8982L197.513 50.1081C198.843 48.5299 199.937 47.4378 199.003 44.7526C196.945 42.718 186.573 40.4314 183.16 40.2107C180.734 39.9593 179.689 40.1183 177.688 39.0603C173.289 38.7014 169.087 38.2203 164.425 38.1879C159.836 38.1564 154.75 39.029 150.577 38.7216C149.021 36.5419 147.645 33.8426 150.047 31.066C156.498 28.5587 182.712 30.5613 189.14 32.9102L192.727 32.2135C195.993 25.138 188.869 26.4301 182.295 24.5662C181.157 21.1528 181.09 20.0905 182.88 17.0933C191.83 16.2531 197.78 22.0327 203.256 19.0158C203.244 16.6508 203.91 14.7422 201.131 13.719C197.301 12.3089 185.314 10.1511 181.277 9.61178C176.051 8.91403 170.951 8.6082 165.631 8.52255C161.153 8.45084 153.138 9.47962 149.396 8.67029C147.965 6.71186 146.835 4.80441 148.755 1.69852C154.894 -2.01622 182.884 1.29637 190.93 2.82864C199.939 4.54406 217.8 9.58097 225.26 13.9878L231.31 16.9807C235.128 18.1309 241.325 22.1765 244.895 24.2202C248.842 26.6507 253.04 29.3137 256.793 32.1031C258.793 33.59 260.688 34.8529 262.656 36.4692C264.64 38.0982 266.349 39.0857 267.927 40.7685C268.324 44.6758 267.12 46.049 263.872 46.9988C262.224 47.0492 253.145 39.841 251.12 38.3978C248.567 36.5784 241.107 30.9931 237.956 30.3878C237.271 30.493 232.782 33.4758 236.606 36.631L255.402 49.5L257.221 51.4175C259.34 52.2839 267.889 59.7753 269.351 61.7825C269.684 65.6266 267.402 67.641 263.872 67.5334C260.092 64.7658 257.33 62.0049 253.915 59.0803C250.814 56.4264 246.841 53.6 243.312 51.0232L220.762 36.7412C218.831 36.6292 216.335 35.8317 215.604 39.4794C215.329 40.8519 215.467 40.6822 215.551 42.0364L218.112 43.474C223.193 45.106 233.355 52.1432 237.891 55.1982C238.543 55.6374 238.731 55.7218 239.338 56.1346L255.31 68.9268L256.986 70.1807C257.531 70.8264 258.061 71.3176 258.611 71.7869C285.904 56.9611 312.699 43.031 312.814 42.9717L321 38.7059V47.9155ZM198.894 280.705V287.773C211.392 283.939 217.317 280.3 228.964 273.801C231.687 272.282 234.231 271.284 232.349 267.975L230.499 266.238C230.428 266.195 230.245 266.123 230.121 266.059L228.223 266.727L226.418 267.846C223.239 269.389 220.837 271.03 217.243 273.014C213.973 274.819 210.206 276.553 207.021 277.812C204.071 278.978 201.448 279.894 198.894 280.705ZM198.894 296.414V297.644L198.851 298.004C198.848 298.029 198.606 300.161 197.906 303.569L198.354 303.439L213.947 298.078C214.095 296.38 214.402 296.104 213.724 294.396L212.664 292.996C211.407 291.784 203.901 294.784 198.894 296.414ZM195.546 312.746C194.835 315.043 193.984 317.493 192.967 320.006C202.148 317.849 220.466 311.946 220.56 311.937C222.098 310.431 228.055 307.859 230.063 307.323L235.597 304.346L238.948 302.168C240.088 292.327 229.967 299.975 226.682 301.55C216.199 306.577 206.915 310.064 195.546 312.746ZM230.803 87.1787C237.108 83.6007 243.989 79.7802 251.004 75.9373L250.937 75.8773C245.683 71.1043 231.027 59.6062 225.299 57.1919C223.218 58.2123 222.093 59.3408 222.215 62.4786L235.374 71.8351L235.149 74.5809C231.282 84.7756 222.247 69.2359 213.245 67.5939C211.198 69.0226 210.646 69.6699 210.649 72.6241C211.086 73.0268 211.098 73.048 211.668 73.4693C213.403 74.7528 217.384 76.8417 218.139 78.011C220.201 78.8231 221.427 79.718 223.026 80.945C225.613 83.1885 228.568 84.9392 230.803 87.1787ZM95.7166 262.958C99.1059 262.479 100.77 260.363 100.47 256.309C99.3509 255.672 99.5275 255.82 98.5119 255.505C97.5844 253.599 94.302 251.446 92.7963 250.207L77.0328 234.351C73.5273 234.705 72.2232 235.914 71.2163 238.856C71.2028 240.206 74.7159 244.375 76.446 245.206C77.7989 248.087 81.5632 251.575 84.168 253.535C85.3415 254.903 86.5016 255.687 88.1487 257.263C89.0005 258.08 89.4925 258.404 90.4722 259.163C91.8053 260.197 91.2803 259.963 92.7009 260.602L95.7166 262.958ZM64.5018 241.748L51.7187 222.668C48.7865 222.352 45.8281 223.429 45.2895 225.822C44.4528 229.535 60.3317 249.878 63.177 253.306C68.3692 259.562 72.3152 262.433 77.0199 267.172C83.649 273.849 109.882 291.267 116.916 291.192C124.004 283.613 115.299 282.575 108.607 278.965C98.5097 273.521 88.0102 266.683 80.0932 258.683C73.4455 251.963 70.6199 250.093 64.5018 241.748ZM91.5353 312.936C94.947 314.674 99.7505 317.933 103.666 317.17C109.026 311.725 104.179 309.849 99.6652 307.773C96.0904 306.128 91.8525 303.866 88.6838 301.9C65.1424 287.291 56.1601 278.817 39.6999 258.022C37.0268 254.645 26.9152 256.33 36.0342 267.175L52.2667 284.688C62.3251 293.811 67.1218 298.634 80.7775 306.809C84.4331 308.997 87.4357 310.848 91.5353 312.936ZM51.337 248.886C49.2113 245.989 44.2601 237.847 42.0755 235.876C37.0851 235.092 34.5514 238.47 36.7998 242.314C41.0103 249.511 44.4691 253.091 48.8236 259.21C50.8836 262.106 52.8272 263.93 55.3167 266.573C61.6118 273.259 70.3592 281.851 78.1715 287.129C81.8316 289.602 84.6725 286.317 84.6416 282.22C82.7653 279.897 80.8503 278.903 78.5969 277.02L61.3372 261.177L51.337 248.886ZM119.279 259.271C120.814 257.705 121.983 256.235 121.983 252.863C120.18 251.016 115.836 249.089 113.245 247.143C111.998 246.135 110.059 244.895 108.734 243.914C106.978 242.616 105.929 241.635 104.357 240.463C101.779 238.541 98.5405 235.396 96.4888 233.272L82.457 216.423C79.0111 216.647 77.6655 217.579 76.2593 220.186C76.7493 223.266 81.7638 229.541 83.6138 230.986C85.6189 234.602 96.3862 245.758 100.055 247.318C102.098 250.339 112.053 256.617 116.617 258.938L119.279 259.271ZM123.073 308.887C128.373 299.831 120.643 301.655 105.961 294.217C102.518 292.473 91.3178 285.508 88.4844 285.803C86.6826 286.86 84.9902 288.546 85.4127 291.218C86 294.931 117.243 309.625 123.073 308.887ZM66.0368 225.61C71.9111 223.162 64.9295 216.597 60.441 204.87C56.6369 194.929 54.4059 183.203 53.5597 181.108C50.4336 180.216 48.6391 180.069 46.2646 182.241C44.9197 190.053 54.8336 214.094 58.2521 219.704C59.1907 222.102 60.5397 224.76 62.5679 226.514C64.6958 226.462 64.3931 226.821 66.0368 225.61ZM76.0587 209.932C77.3471 209.163 78.6591 209.274 76.8579 205.352L71.1522 191.278C67.3633 190.785 66.0715 191.597 63.8512 193.07C63.7066 195.879 63.9689 195.066 64.9093 198.017C64.9686 198.205 65.1093 198.746 65.1664 198.933L68.6085 206.536C68.7946 208.386 69.6459 210.062 71.0054 211.629C73.8905 211.811 74.9155 211.414 76.0587 209.932ZM87.1052 78.7861C90.2234 84.8776 94.52 79.8815 97.8445 77.1615C102.855 73.0621 118.366 64.2668 118.677 63.5897C119.099 60.3118 117.914 58.4201 115.952 57.1253C113.213 56.0791 94.4204 68.0951 92.8158 71.1474C90.6161 71.5981 92.2122 70.9502 90.2956 72.614C89.4544 73.3444 89.1104 73.5678 88.3739 74.2527C86.2859 74.8956 85.8768 76.3858 87.1052 78.7861ZM77.2295 55.5242C77.262 55.5427 77.1414 55.6015 77.2295 55.5242ZM70.403 60.7829C72.472 59.9383 72.1268 59.9149 73.705 58.4638C75.3935 56.9114 75.3162 57.5503 76.5666 55.6803C77.0586 55.5219 77.2015 55.5079 77.2295 55.5242C77.2816 55.4782 77.4088 55.3835 77.6868 55.2032C85.4425 50.1764 84.812 48.9741 98.9619 40.9399C108.45 35.5535 122.953 30.3328 123.155 30.2192C124.252 29.5992 123.833 29.8037 124.389 29.0403C127.618 27.648 124.061 23.22 122.923 22.1564C120.545 22.1357 120.715 22.0254 119.034 23.1846C110.717 23.9821 86.5464 38.1073 78.2276 44.3029C76.2745 45.7572 74.5625 47.2015 72.4726 48.7909L67.5085 52.8349C66.8058 53.6211 67.2254 53.1894 66.9761 53.7662C65.9971 54.2467 65.9634 53.4251 65.5061 55.0307C64.4379 58.7813 68.8636 60.9334 70.403 60.7829ZM139.111 71.4089C140.72 71.4726 155.216 68.5908 156.617 67.8056C157.833 65.4299 157.761 62.8477 155.987 60.5488C152.243 59.6656 139.58 62.5592 136.82 64.1755C136.318 68.1775 137.011 69.3306 139.111 71.4089ZM126.455 59.931C128.747 59.9848 132.601 58.4453 134.644 57.6315C140.117 56.4617 144.627 55.0241 150.742 54.0932C163.147 52.2055 170.04 55.6491 170.877 49.7643C171.662 44.2272 167.89 44.7806 165.033 44.7845C156.556 44.7957 137.055 46.562 131.52 50.2717C129.644 50.5902 129.397 50.7617 127.509 51.4056C123.666 52.7161 124.88 52.2172 124.092 53.5595C122.681 56.0063 125.001 58.8726 126.455 59.931ZM28.8957 227.301C29.8478 235.597 42.7082 233.558 35.6689 223.127C32.4532 222.866 28.4641 223.542 28.8957 227.301ZM32.8909 218.379C33.3286 217.25 28.4564 203.109 27.6017 200.73L23.4388 181.002C21.2224 178.495 18.6075 179.43 16.182 180.979C15.139 186.571 21.2447 213.058 24.3243 215.678C24.3596 223.795 31.7745 221.257 32.8909 218.379ZM18.9611 239.174C21.2824 239.957 23.9366 238.583 24.7155 236.517C25.5645 234.267 18.2538 219.562 17.1504 219.132C14.4397 218.079 11.5221 219.901 11.0009 221.676C10.2646 224.183 16.7531 238.429 18.9611 239.174ZM12.6586 202.095C10.6294 191.292 9.01929 183.458 8.23751 171.999C8.09853 160.068 9.21432 151.859 10.0835 140.685C10.8435 137.603 11.4089 134.059 12.2165 130.712C12.9635 127.615 15.0746 123.346 13.8165 120.849C12.7976 118.707 11.2705 118.283 7.99484 118.701C3.80907 120.574 0.6853 149.37 0.249849 154.729C-0.39183 162.626 0.107514 189.371 2.8659 195.212C3.2935 199.148 4.5819 203.923 5.66296 207.785C7.33524 213.759 11.1903 213.106 14.1129 209.344C14.2093 206.968 13.3524 204.509 12.6586 202.095ZM176.422 23.6383C177 23.0071 176.79 23.2166 177.103 22.3704C178.563 21.1204 178.812 19.2751 178.053 17.4209C177.287 15.5437 175.512 15.6466 173.537 15.5179C164.64 14.2796 150.985 15.4881 141.393 17.0702C137.5 17.7126 134.286 17.5402 135.283 22.642C136.34 28.0564 143.496 24.6631 153.565 23.8063C161.156 23.1612 169.802 24.3181 176.422 23.6383ZM128.704 13.1283L130.215 12.2394C131.973 12.4382 134.501 11.8765 135.752 11.3069C138.082 11.0718 138.249 10.678 139.657 9.51651L139.821 5.03348C138.572 3.93981 138.354 3.22012 136.645 3.01075C135.089 2.8202 132.969 3.49232 132.085 4.19852C129.381 4.11287 122.59 5.63774 120.845 6.94998C116.281 8.07833 118.665 12.4527 120.975 14.6543L125.097 14.2056L127.741 13.6602C127.895 13.5998 128.093 13.467 128.217 13.4116C128.349 13.3528 128.541 13.2206 128.704 13.1283ZM123.302 176.523V144.507C123.302 142.981 123.492 141.496 123.85 140.076C120.594 128.966 112.906 112.632 94.8888 102.097C70.2136 87.6687 29.6157 66.2 12.3487 57.1404V82.6437L12.3269 82.7092C12.3263 82.7942 11.7082 112.544 41.2972 130.284C64.9833 144.485 104.211 166.089 123.302 176.523ZM176.111 130.466H141.555C137.693 130.466 134.18 132.047 131.633 134.593C129.086 137.137 127.505 140.647 127.505 144.507V179.04C127.505 182.899 129.086 186.411 131.633 188.955C134.18 191.5 137.693 193.082 141.555 193.082H176.111C179.973 193.082 183.486 191.5 186.034 188.955C188.581 186.411 190.162 182.899 190.162 179.04V144.507C190.162 140.647 188.581 137.137 186.034 134.593C183.486 132.047 179.973 130.466 176.111 130.466ZM309.792 82.6437V57.1404C292.525 66.2 251.926 87.6687 227.252 102.097C199.405 118.379 196.229 148.521 195.962 151.809V178.174L198.894 176.493C218.008 166.047 257.184 144.47 280.844 130.284C310.432 112.544 309.814 82.7942 309.814 82.7092L309.792 82.6437ZM187.685 297.039V195.937C178.771 201.418 165.731 209.391 163.067 210.8C161.135 211.823 157.438 214.54 153.51 218.371C150.669 221.144 147.778 224.466 145.482 228.086C140.684 235.648 137.889 246.41 137.228 249.145V353.866C143.62 350.207 153.303 344.712 165.079 338.174C183.072 328.186 187.236 300.461 187.685 297.039ZM154.919 157.486C155.241 157.342 160.298 157.419 161.36 157.419C162.014 157.419 162.896 157.271 163.126 157.831C163.257 158.143 163.19 163.252 163.191 164.3C163.191 164.948 163.34 165.835 162.781 166.063C162.465 166.194 157.355 166.129 156.307 166.129C155.653 166.129 154.771 166.277 154.541 165.72C154.41 165.404 154.476 160.295 154.476 159.247C154.476 158.484 154.298 157.761 154.919 157.486ZM148.682 149.659C147.824 149.878 147.258 150.311 146.916 150.997C146.516 151.8 146.631 152.796 146.631 153.762C146.631 155.976 146.503 171.155 146.705 171.981C147.25 174.209 149.391 173.968 150.815 173.968C153.042 173.968 168.209 174.096 169.048 173.89C171.28 173.345 171.035 171.204 171.035 169.787C171.035 167.572 171.163 152.393 170.961 151.566C170.417 149.339 168.276 149.579 166.852 149.579C164.652 149.579 149.502 149.45 148.682 149.659ZM171.258 135.677C172.398 135.403 172.721 137.101 171.694 137.355C170.556 137.636 170.215 135.928 171.258 135.677ZM169.244 137.91L165.542 142.175C164.781 143.038 164.935 143.07 164.935 144.268C164.935 145.451 164.914 146.652 164.94 147.833L166.673 147.838C166.695 146.798 166.679 145.741 166.677 144.704C166.674 143.007 166.786 143.544 168.025 142.044L169.895 139.909C170.162 139.599 170.375 139.31 170.687 139.032C173.956 139.592 175.108 136.144 173.087 134.465C171.087 132.803 167.763 134.957 169.244 137.91ZM183.852 148.334C184.944 147.962 185.387 149.629 184.398 149.964C183.277 150.344 182.826 148.684 183.852 148.334ZM181.591 149.929C181.054 150.523 178.544 152.582 177.786 153.282C176.957 154.045 177.245 153.938 176.003 153.935C174.939 153.932 173.844 153.912 172.783 153.941L172.779 155.67C173.423 155.69 177.432 155.819 177.869 155.537L179.793 153.888C179.976 153.737 180.053 153.615 180.239 153.466C180.481 153.27 180.503 153.271 180.753 153.023L182.714 151.369C185.584 152.852 187.862 149.579 186.163 147.531C184.483 145.507 181.031 146.663 181.591 149.929ZM133.344 173.564C134.454 173.296 134.825 174.981 133.782 175.238C132.629 175.521 132.309 173.813 133.344 173.564ZM134.953 172.179C132.083 170.695 129.806 173.968 131.506 176.016C133.185 178.04 136.637 176.885 136.075 173.619L139.443 170.618C139.599 170.477 139.723 170.411 139.881 170.266C140.709 169.502 140.421 169.611 141.664 169.614C142.728 169.615 143.822 169.636 144.884 169.606L144.888 167.877C144.245 167.858 140.234 167.729 139.798 168.009L137.428 170.082C137.186 170.279 137.164 170.276 136.914 170.526L135.986 171.341C135.613 171.635 135.384 171.944 134.953 172.179ZM183.851 173.592C184.929 173.219 185.394 174.878 184.398 175.221C183.279 175.604 182.829 173.946 183.851 173.592ZM172.779 169.606C173.817 169.634 174.879 169.614 175.917 169.614C176.529 169.612 176.901 169.508 177.291 169.805C177.476 169.944 177.516 169.997 177.699 170.18C177.877 170.357 177.987 170.414 178.178 170.577C178.345 170.72 178.412 170.823 178.577 170.958L181.591 173.619C181.031 176.886 184.485 178.039 186.163 176.016C187.862 173.966 185.583 170.695 182.714 172.179C182.297 171.953 182.085 171.651 181.73 171.378L179.403 169.348C179.137 169.092 179.15 169.096 178.894 168.899C177.696 167.972 178.351 167.87 176.352 167.87C175.171 167.87 173.961 167.844 172.783 167.877L172.779 169.606ZM145.983 135.679C146.468 135.563 146.928 135.864 147.031 136.292C147.152 136.79 146.835 137.252 146.419 137.355C145.304 137.629 144.91 135.936 145.983 135.679ZM146.981 139.032L150.718 143.231C151.102 143.693 150.991 143.855 150.99 144.617C150.987 145.683 150.972 146.77 150.996 147.833L152.727 147.838C152.742 147.189 152.874 143.19 152.593 142.753C152.302 142.299 149.795 139.633 149.259 138.944C148.972 138.575 148.644 138.332 148.423 137.91C149.904 134.957 146.58 132.803 144.579 134.465C142.557 136.144 143.705 139.582 146.981 139.032ZM145.348 187.205C145.267 186.704 145.588 186.252 146.045 186.18C146.553 186.098 146.978 186.455 147.045 186.879C147.227 188.024 145.516 188.235 145.348 187.205ZM146.981 184.516C143.703 183.964 142.561 187.406 144.579 189.082C146.579 190.745 149.904 188.589 148.423 185.639C148.659 185.188 151.838 181.748 152.515 180.893C152.839 180.487 152.732 179.858 152.732 179.279C152.732 178.097 152.754 176.895 152.727 175.714L150.99 175.71C150.972 176.75 150.988 177.806 150.99 178.843C150.991 179.455 151.09 179.827 150.797 180.22L146.981 184.516ZM133.346 148.309C133.822 148.193 134.288 148.49 134.394 148.921C134.518 149.425 134.2 149.874 133.782 149.98C132.635 150.268 132.308 148.559 133.346 148.309ZM134.953 151.369C135.37 151.594 135.582 151.896 135.937 152.169L139.702 155.461C140.113 155.786 140.726 155.678 141.316 155.678C142.496 155.678 143.706 155.703 144.884 155.67L144.888 153.941C143.85 153.913 142.788 153.934 141.751 153.935C140.063 153.937 140.597 153.837 139.091 152.59L137.783 151.458C137.268 150.954 136.581 150.487 136.075 149.929C136.637 146.663 133.185 145.509 131.506 147.531C129.806 149.579 132.083 152.852 134.953 151.369ZM171.258 186.191C172.391 185.92 172.757 187.603 171.694 187.867C171.189 187.99 170.737 187.675 170.635 187.254C170.513 186.752 170.834 186.294 171.258 186.191ZM164.94 175.714C164.914 176.895 164.935 178.097 164.935 179.279C164.934 181.251 165.026 180.623 165.964 181.82L168.028 184.2C168.348 184.545 169.063 185.295 169.244 185.639C167.761 188.589 171.089 190.743 173.087 189.082C175.11 187.403 173.962 183.964 170.687 184.516C170.374 184.234 170.162 183.95 169.895 183.64C169.748 183.466 169.652 183.413 169.512 183.243C169.361 183.059 169.318 182.973 169.157 182.81L168.025 181.503C167.89 181.339 167.786 181.272 167.644 181.105C166.587 179.866 166.676 180.282 166.677 178.843C166.679 177.806 166.695 176.75 166.673 175.71L164.94 175.714ZM179.838 160.898L172.783 160.902L172.779 162.639L179.838 162.645C180.096 162.931 180.73 164.669 182.782 164.355C185.642 163.915 185.718 159.738 182.856 159.206C180.771 158.819 180.096 160.618 179.838 160.898ZM157.962 182.677C157.801 183.074 155.923 183.532 156.249 185.701C156.688 188.611 160.979 188.61 161.417 185.701C161.578 184.637 161.141 183.788 160.401 183.201C160.178 183.025 159.91 182.949 159.705 182.764L159.699 175.71L157.963 175.714L157.962 182.677ZM157.962 140.871L157.963 147.833L159.699 147.838L159.705 140.783C159.989 140.527 161.726 139.899 161.417 137.846C160.979 134.936 156.689 134.936 156.249 137.846C156.089 138.907 156.526 139.761 157.266 140.346C157.533 140.557 157.845 140.582 157.962 140.871ZM137.829 162.649L144.884 162.645L144.888 160.908L137.829 160.902C137.647 160.701 137.562 160.425 137.391 160.209C137.235 160.009 137.023 159.79 136.771 159.61C135.2 158.49 132.687 159.551 132.687 161.774C132.688 163.119 133.669 164.13 134.811 164.342C135.513 164.472 136.218 164.309 136.72 163.973C136.968 163.807 137.196 163.573 137.352 163.386C137.539 163.161 137.631 162.864 137.829 162.649ZM172.779 159.155C174.125 159.191 175.822 159.443 175.822 158.29C175.822 157.124 174.116 157.389 172.783 157.425L172.779 159.155ZM161.449 147.404L161.452 147.833L163.187 147.835C163.194 147.165 163.42 145.323 162.793 144.926C162.466 144.722 162.044 144.75 161.749 145.002C161.244 145.433 161.449 146.663 161.449 147.404ZM154.476 147.404L154.48 147.833L156.213 147.835C156.221 147.165 156.449 145.323 155.819 144.926C155.494 144.722 155.072 144.75 154.777 145.002C154.272 145.433 154.476 146.663 154.476 147.404ZM144.884 166.123L144.888 164.393C144.255 164.376 143.598 164.379 142.967 164.383C142.331 164.387 141.845 164.602 141.845 165.259C141.845 166.423 143.554 166.158 144.884 166.123ZM163.187 175.714L161.454 175.71C161.424 177.073 161.164 178.752 162.321 178.752C162.935 178.752 163.182 178.313 163.194 177.717C163.208 177.068 163.2 176.364 163.187 175.714ZM144.884 159.155L144.888 157.425C144.255 157.408 143.598 157.411 142.967 157.414C142.331 157.42 141.845 157.634 141.845 158.29C141.845 158.901 142.282 159.151 142.879 159.164C143.527 159.179 144.235 159.173 144.884 159.155ZM156.213 175.714L154.48 175.71C154.467 176.345 154.468 176.997 154.473 177.63C154.483 179.172 156.193 179.12 156.221 177.717C156.236 177.068 156.228 176.364 156.213 175.714ZM172.779 166.123C173.412 166.14 174.07 166.137 174.701 166.133C176.243 166.12 176.189 164.414 174.788 164.383C174.14 164.368 173.431 164.376 172.783 164.393L172.779 166.123Z" fill="url(#paint0_linear_1355_10)" fill-opacity="0.85"/>
<defs>
<linearGradient id="paint0_linear_1355_10" x1="160.5" y1="-39.7129" x2="160.5" y2="373.287" gradientUnits="userSpaceOnUse">
<stop stop-color="#D3CFCF"/>
<stop offset="1" stop-color="#3B505A" stop-opacity="0.7"/>
</linearGradient>
</defs>
</svg>
